<svg width="226" height="39" viewBox="0 0 226 39" fill="none" xmlns="http://www.w3.org/2000/svg">
<mask id="mask0_202_2" style="mask-type:luminance" maskUnits="userSpaceOnUse" x="0" y="8" width="36" height="27">
<path d="M0.287575 8.44336H35.7117V34.5566H0.287575V8.44336Z" fill="white"/>
</mask>
<g mask="url(#mask0_202_2)">
<path d="M35.4087 8.4543H0.590622C0.423904 8.4543 0.287674 8.58674 0.287674 8.74883V29.3995C0.287674 29.5616 0.423904 29.694 0.590622 29.694H14.7284V31.8143H11.1616C10.9949 31.8143 10.8587 31.9467 10.8587 32.1088C10.8587 32.5358 10.5027 32.8819 10.0561 32.8819C9.8894 32.8819 9.75317 33.0143 9.75317 33.1764V34.244C9.75317 34.4061 9.8894 34.5385 10.0561 34.5385H25.9355C26.1022 34.5385 26.2384 34.4061 26.2384 34.244V33.1764C26.2384 33.0143 26.1022 32.8819 25.9355 32.8819C25.4963 32.8819 25.1329 32.5358 25.1329 32.1088C25.1329 31.9467 24.9967 31.8143 24.83 31.8143H21.2633V29.694H35.401C35.5677 29.694 35.7039 29.5616 35.7039 29.3995V8.74883C35.7114 8.58701 35.5751 8.45456 35.4084 8.45456L35.4087 8.4543ZM35.106 9.0431V24.8792H0.893339V9.0431H35.106ZM25.6405 33.4412V33.9566H10.3595V33.4412C10.8896 33.3307 11.3137 32.9184 11.4271 32.4033H24.5728C24.6862 32.9258 25.1029 33.3309 25.6404 33.4412H25.6405ZM20.6654 31.8217H15.3345V29.7015H20.6656L20.6654 31.8217ZM35.1061 29.105H0.89348V25.4681H35.1061V29.105Z" fill="white"/>
</g>
<path d="M32.933 28.6408C33.6979 28.6408 34.3263 28.0299 34.3263 27.2862C34.3263 26.5425 33.7053 25.9316 32.933 25.9316C32.1607 25.9316 31.5397 26.5354 31.5397 27.2862C31.5397 28.0371 32.1607 28.6408 32.933 28.6408ZM32.933 26.5278C33.3647 26.5278 33.7204 26.8664 33.7204 27.2934C33.7204 27.7132 33.3644 28.0589 32.933 28.0589C32.5012 28.0589 32.1455 27.7129 32.1455 27.2934C32.1453 26.8667 32.4938 26.5278 32.933 26.5278Z" fill="white"/>
<path d="M13.5773 27.5813H15.4176C15.5843 27.5813 15.7205 27.4488 15.7205 27.2867C15.7205 27.1246 15.5843 26.9922 15.4176 26.9922H13.5773C13.4106 26.9922 13.2744 27.1246 13.2744 27.2867C13.2747 27.4488 13.4109 27.5813 13.5773 27.5813Z" fill="white"/>
<path d="M17.0838 27.5813H18.9163C19.083 27.5813 19.2193 27.4488 19.2193 27.2867C19.2193 27.1246 19.083 26.9922 18.9163 26.9922H17.0838C16.9171 26.9922 16.7809 27.1246 16.7809 27.2867C16.7809 27.4488 16.9171 27.5813 17.0838 27.5813Z" fill="white"/>
<path d="M20.5896 27.5813H22.4221C22.5888 27.5813 22.725 27.4488 22.725 27.2867C22.725 27.1246 22.5888 26.9922 22.4221 26.9922H20.5896C20.4229 26.9922 20.2867 27.1246 20.2867 27.2867C20.2867 27.4488 20.4155 27.5813 20.5896 27.5813Z" fill="white"/>
<path d="M41.398 32.208H42.742V33H40.372V28.788H41.398V32.208ZM46.3874 31.272C46.3874 31.368 46.3814 31.468 46.3694 31.572H44.0474C44.0634 31.78 44.1294 31.94 44.2454 32.052C44.3654 32.16 44.5114 32.214 44.6834 32.214C44.9394 32.214 45.1174 32.106 45.2174 31.89H46.3094C46.2534 32.11 46.1514 32.308 46.0034 32.484C45.8594 32.66 45.6774 32.798 45.4574 32.898C45.2374 32.998 44.9914 33.048 44.7194 33.048C44.3914 33.048 44.0994 32.978 43.8434 32.838C43.5874 32.698 43.3874 32.498 43.2434 32.238C43.0994 31.978 43.0274 31.674 43.0274 31.326C43.0274 30.978 43.0974 30.674 43.2374 30.414C43.3814 30.154 43.5814 29.954 43.8374 29.814C44.0934 29.674 44.3874 29.604 44.7194 29.604C45.0434 29.604 45.3314 29.672 45.5834 29.808C45.8354 29.944 46.0314 30.138 46.1714 30.39C46.3154 30.642 46.3874 30.936 46.3874 31.272ZM45.3374 31.002C45.3374 30.826 45.2774 30.686 45.1574 30.582C45.0374 30.478 44.8874 30.426 44.7074 30.426C44.5354 30.426 44.3894 30.476 44.2694 30.576C44.1534 30.676 44.0814 30.818 44.0534 31.002H45.3374ZM46.7246 31.32C46.7246 30.976 46.7886 30.674 46.9166 30.414C47.0486 30.154 47.2266 29.954 47.4506 29.814C47.6746 29.674 47.9246 29.604 48.2006 29.604C48.4366 29.604 48.6426 29.652 48.8186 29.748C48.9986 29.844 49.1366 29.97 49.2326 30.126V29.652H50.2586V33H49.2326V32.526C49.1326 32.682 48.9926 32.808 48.8126 32.904C48.6366 33 48.4306 33.048 48.1946 33.048C47.9226 33.048 47.6746 32.978 47.4506 32.838C47.2266 32.694 47.0486 32.492 46.9166 32.232C46.7886 31.968 46.7246 31.664 46.7246 31.32ZM49.2326 31.326C49.2326 31.07 49.1606 30.868 49.0166 30.72C48.8766 30.572 48.7046 30.498 48.5006 30.498C48.2966 30.498 48.1226 30.572 47.9786 30.72C47.8386 30.864 47.7686 31.064 47.7686 31.32C47.7686 31.576 47.8386 31.78 47.9786 31.932C48.1226 32.08 48.2966 32.154 48.5006 32.154C48.7046 32.154 48.8766 32.08 49.0166 31.932C49.1606 31.784 49.2326 31.582 49.2326 31.326ZM52.0269 30.21C52.1469 30.026 52.2969 29.882 52.4769 29.778C52.6569 29.67 52.8569 29.616 53.0769 29.616V30.702H52.7949C52.5389 30.702 52.3469 30.758 52.2189 30.87C52.0909 30.978 52.0269 31.17 52.0269 31.446V33H51.0009V29.652H52.0269V30.21ZM55.6073 29.616C55.9993 29.616 56.3113 29.744 56.5433 30C56.7793 30.252 56.8973 30.6 56.8973 31.044V33H55.8773V31.182C55.8773 30.958 55.8193 30.784 55.7033 30.66C55.5873 30.536 55.4313 30.474 55.2353 30.474C55.0393 30.474 54.8833 30.536 54.7673 30.66C54.6513 30.784 54.5933 30.958 54.5933 31.182V33H53.5673V29.652H54.5933V30.096C54.6973 29.948 54.8373 29.832 55.0133 29.748C55.1893 29.66 55.3873 29.616 55.6073 29.616ZM58.7143 32.052L58.0483 33.774H57.3943L57.7423 32.052H58.7143ZM61.6304 29.61V30.462H63.0044V31.254H61.6304V32.178H63.1844V33H60.6044V28.788H63.1844V29.61H61.6304ZM65.8305 33L65.1885 32.07L64.6485 33H63.5385L64.6425 31.29L63.5085 29.652H64.6605L65.3025 30.576L65.8425 29.652H66.9525L65.8305 31.338L66.9825 33H65.8305ZM70.5339 31.272C70.5339 31.368 70.5279 31.468 70.5159 31.572H68.1939C68.2099 31.78 68.2759 31.94 68.3919 32.052C68.5119 32.16 68.6579 32.214 68.8299 32.214C69.0859 32.214 69.2639 32.106 69.3639 31.89H70.4559C70.3999 32.11 70.2979 32.308 70.1499 32.484C70.0059 32.66 69.8239 32.798 69.6039 32.898C69.3839 32.998 69.1379 33.048 68.8659 33.048C68.5379 33.048 68.2459 32.978 67.9899 32.838C67.7339 32.698 67.5339 32.498 67.3899 32.238C67.2459 31.978 67.1739 31.674 67.1739 31.326C67.1739 30.978 67.2439 30.674 67.3839 30.414C67.5279 30.154 67.7279 29.954 67.9839 29.814C68.2399 29.674 68.5339 29.604 68.8659 29.604C69.1899 29.604 69.4779 29.672 69.7299 29.808C69.9819 29.944 70.1779 30.138 70.3179 30.39C70.4619 30.642 70.5339 30.936 70.5339 31.272ZM69.4839 31.002C69.4839 30.826 69.4239 30.686 69.3039 30.582C69.1839 30.478 69.0339 30.426 68.8539 30.426C68.6819 30.426 68.5359 30.476 68.4159 30.576C68.2999 30.676 68.2279 30.818 68.1999 31.002H69.4839ZM70.8711 31.326C70.8711 30.978 70.9411 30.674 71.0811 30.414C71.2251 30.154 71.4231 29.954 71.6751 29.814C71.9311 29.674 72.2231 29.604 72.5511 29.604C72.9711 29.604 73.3211 29.714 73.6011 29.934C73.8851 30.154 74.0711 30.464 74.1591 30.864H73.0671C72.9751 30.608 72.7971 30.48 72.5331 30.48C72.3451 30.48 72.1951 30.554 72.0831 30.702C71.9711 30.846 71.9151 31.054 71.9151 31.326C71.9151 31.598 71.9711 31.808 72.0831 31.956C72.1951 32.1 72.3451 32.172 72.5331 32.172C72.7971 32.172 72.9751 32.044 73.0671 31.788H74.1591C74.0711 32.18 73.8851 32.488 73.6011 32.712C73.3171 32.936 72.9671 33.048 72.5511 33.048C72.2231 33.048 71.9311 32.978 71.6751 32.838C71.4231 32.698 71.2251 32.498 71.0811 32.238C70.9411 31.978 70.8711 31.674 70.8711 31.326ZM78.0139 29.652V33H76.9879V32.544C76.8839 32.692 76.7419 32.812 76.5619 32.904C76.3859 32.992 76.1899 33.036 75.9739 33.036C75.7179 33.036 75.4919 32.98 75.2959 32.868C75.0999 32.752 74.9479 32.586 74.8399 32.37C74.7319 32.154 74.6779 31.9 74.6779 31.608V29.652H75.6979V31.47C75.6979 31.694 75.7559 31.868 75.8719 31.992C75.9879 32.116 76.1439 32.178 76.3399 32.178C76.5399 32.178 76.6979 32.116 76.8139 31.992C76.9299 31.868 76.9879 31.694 76.9879 31.47V29.652H78.0139ZM80.6169 32.13V33H80.0949C79.7229 33 79.4329 32.91 79.2249 32.73C79.0169 32.546 78.9129 32.248 78.9129 31.836V30.504H78.5049V29.652H78.9129V28.836H79.9389V29.652H80.6109V30.504H79.9389V31.848C79.9389 31.948 79.9629 32.02 80.0109 32.064C80.0589 32.108 80.1389 32.13 80.2509 32.13H80.6169ZM84.3444 31.272C84.3444 31.368 84.3384 31.468 84.3264 31.572H82.0044C82.0204 31.78 82.0864 31.94 82.2024 32.052C82.3224 32.16 82.4684 32.214 82.6404 32.214C82.8964 32.214 83.0744 32.106 83.1744 31.89H84.2664C84.2104 32.11 84.1084 32.308 83.9604 32.484C83.8164 32.66 83.6344 32.798 83.4144 32.898C83.1944 32.998 82.9484 33.048 82.6764 33.048C82.3484 33.048 82.0564 32.978 81.8004 32.838C81.5444 32.698 81.3444 32.498 81.2004 32.238C81.0564 31.978 80.9844 31.674 80.9844 31.326C80.9844 30.978 81.0544 30.674 81.1944 30.414C81.3384 30.154 81.5384 29.954 81.7944 29.814C82.0504 29.674 82.3444 29.604 82.6764 29.604C83.0004 29.604 83.2884 29.672 83.5404 29.808C83.7924 29.944 83.9884 30.138 84.1284 30.39C84.2724 30.642 84.3444 30.936 84.3444 31.272ZM83.2944 31.002C83.2944 30.826 83.2344 30.686 83.1144 30.582C82.9944 30.478 82.8444 30.426 82.6644 30.426C82.4924 30.426 82.3464 30.476 82.2264 30.576C82.1104 30.676 82.0384 30.818 82.0104 31.002H83.2944ZM85.9897 32.052L85.3237 33.774H84.6697L85.0177 32.052H85.9897ZM90.5018 32.256H88.9298L88.6778 33H87.6038L89.1278 28.788H90.3158L91.8398 33H90.7538L90.5018 32.256ZM90.2378 31.464L89.7158 29.922L89.1998 31.464H90.2378ZM92.0996 31.326C92.0996 30.978 92.1696 30.674 92.3096 30.414C92.4536 30.154 92.6516 29.954 92.9036 29.814C93.1596 29.674 93.4516 29.604 93.7796 29.604C94.1996 29.604 94.5496 29.714 94.8296 29.934C95.1136 30.154 95.2996 30.464 95.3876 30.864H94.2956C94.2036 30.608 94.0256 30.48 93.7616 30.48C93.5736 30.48 93.4236 30.554 93.3116 30.702C93.1996 30.846 93.1436 31.054 93.1436 31.326C93.1436 31.598 93.1996 31.808 93.3116 31.956C93.4236 32.1 93.5736 32.172 93.7616 32.172C94.0256 32.172 94.2036 32.044 94.2956 31.788H95.3876C95.2996 32.18 95.1136 32.488 94.8296 32.712C94.5456 32.936 94.1956 33.048 93.7796 33.048C93.4516 33.048 93.1596 32.978 92.9036 32.838C92.6516 32.698 92.4536 32.498 92.3096 32.238C92.1696 31.978 92.0996 31.674 92.0996 31.326ZM97.9945 29.616C98.3785 29.616 98.6865 29.744 98.9185 30C99.1505 30.252 99.2665 30.6 99.2665 31.044V33H98.2465V31.182C98.2465 30.958 98.1885 30.784 98.0725 30.66C97.9565 30.536 97.8005 30.474 97.6045 30.474C97.4085 30.474 97.2525 30.536 97.1365 30.66C97.0205 30.784 96.9625 30.958 96.9625 31.182V33H95.9365V28.56H96.9625V30.102C97.0665 29.954 97.2085 29.836 97.3885 29.748C97.5685 29.66 97.7705 29.616 97.9945 29.616ZM100.495 29.304C100.315 29.304 100.167 29.252 100.051 29.148C99.9394 29.04 99.8834 28.908 99.8834 28.752C99.8834 28.592 99.9394 28.46 100.051 28.356C100.167 28.248 100.315 28.194 100.495 28.194C100.671 28.194 100.815 28.248 100.927 28.356C101.043 28.46 101.101 28.592 101.101 28.752C101.101 28.908 101.043 29.04 100.927 29.148C100.815 29.252 100.671 29.304 100.495 29.304ZM101.005 29.652V33H99.9794V29.652H101.005ZM104.905 31.272C104.905 31.368 104.899 31.468 104.887 31.572H102.565C102.581 31.78 102.647 31.94 102.763 32.052C102.883 32.16 103.029 32.214 103.201 32.214C103.457 32.214 103.635 32.106 103.735 31.89H104.827C104.771 32.11 104.669 32.308 104.521 32.484C104.377 32.66 104.195 32.798 103.975 32.898C103.755 32.998 103.509 33.048 103.237 33.048C102.909 33.048 102.617 32.978 102.361 32.838C102.105 32.698 101.905 32.498 101.761 32.238C101.617 31.978 101.545 31.674 101.545 31.326C101.545 30.978 101.615 30.674 101.755 30.414C101.899 30.154 102.099 29.954 102.355 29.814C102.611 29.674 102.905 29.604 103.237 29.604C103.561 29.604 103.849 29.672 104.101 29.808C104.353 29.944 104.549 30.138 104.689 30.39C104.833 30.642 104.905 30.936 104.905 31.272ZM103.855 31.002C103.855 30.826 103.795 30.686 103.675 30.582C103.555 30.478 103.405 30.426 103.225 30.426C103.053 30.426 102.907 30.476 102.787 30.576C102.671 30.676 102.599 30.818 102.571 31.002H103.855ZM106.952 32.04L107.678 29.652H108.77L107.582 33H106.316L105.128 29.652H106.226L106.952 32.04ZM112.358 31.272C112.358 31.368 112.352 31.468 112.34 31.572H110.018C110.034 31.78 110.1 31.94 110.216 32.052C110.336 32.16 110.482 32.214 110.654 32.214C110.91 32.214 111.088 32.106 111.188 31.89H112.28C112.224 32.11 112.122 32.308 111.974 32.484C111.83 32.66 111.648 32.798 111.428 32.898C111.208 32.998 110.962 33.048 110.69 33.048C110.362 33.048 110.07 32.978 109.814 32.838C109.558 32.698 109.358 32.498 109.214 32.238C109.07 31.978 108.998 31.674 108.998 31.326C108.998 30.978 109.068 30.674 109.208 30.414C109.352 30.154 109.552 29.954 109.808 29.814C110.064 29.674 110.358 29.604 110.69 29.604C111.014 29.604 111.302 29.672 111.554 29.808C111.806 29.944 112.002 30.138 112.142 30.39C112.286 30.642 112.358 30.936 112.358 31.272ZM111.308 31.002C111.308 30.826 111.248 30.686 111.128 30.582C111.008 30.478 110.858 30.426 110.678 30.426C110.506 30.426 110.36 30.476 110.24 30.576C110.124 30.676 110.052 30.818 110.024 31.002H111.308Z" fill="white"/>
<path d="M44.592 12.44V15.848H50.088V19.016H44.592V22.712H50.808V26H40.488V9.152H50.808V12.44H44.592ZM61.3924 26L58.8244 22.28L56.6644 26H52.2244L56.6404 19.16L52.1044 12.608H56.7124L59.2804 16.304L61.4404 12.608H65.8804L61.3924 19.352L66.0004 26H61.3924ZM66.7658 19.28C66.7658 17.904 67.0218 16.696 67.5338 15.656C68.0618 14.616 68.7738 13.816 69.6698 13.256C70.5658 12.696 71.5658 12.416 72.6698 12.416C73.6138 12.416 74.4378 12.608 75.1418 12.992C75.8618 13.376 76.4138 13.88 76.7978 14.504V12.608H80.9018V26H76.7978V24.104C76.3978 24.728 75.8378 25.232 75.1178 25.616C74.4138 26 73.5898 26.192 72.6458 26.192C71.5578 26.192 70.5658 25.912 69.6698 25.352C68.7738 24.776 68.0618 23.968 67.5338 22.928C67.0218 21.872 66.7658 20.656 66.7658 19.28ZM76.7978 19.304C76.7978 18.28 76.5098 17.472 75.9338 16.88C75.3738 16.288 74.6858 15.992 73.8698 15.992C73.0538 15.992 72.3578 16.288 71.7818 16.88C71.2218 17.456 70.9418 18.256 70.9418 19.28C70.9418 20.304 71.2218 21.12 71.7818 21.728C72.3578 22.32 73.0538 22.616 73.8698 22.616C74.6858 22.616 75.3738 22.32 75.9338 21.728C76.5098 21.136 76.7978 20.328 76.7978 19.304ZM100.959 12.464C102.623 12.464 103.943 12.968 104.919 13.976C105.911 14.984 106.407 16.384 106.407 18.176V26H102.327V18.728C102.327 17.864 102.095 17.2 101.631 16.736C101.183 16.256 100.559 16.016 99.7588 16.016C98.9588 16.016 98.3268 16.256 97.8628 16.736C97.4148 17.2 97.1908 17.864 97.1908 18.728V26H93.1108V18.728C93.1108 17.864 92.8788 17.2 92.4148 16.736C91.9668 16.256 91.3428 16.016 90.5428 16.016C89.7428 16.016 89.1108 16.256 88.6468 16.736C88.1988 17.2 87.9748 17.864 87.9748 18.728V26H83.8708V12.608H87.9748V14.288C88.3908 13.728 88.9348 13.288 89.6068 12.968C90.2788 12.632 91.0388 12.464 91.8868 12.464C92.8948 12.464 93.7908 12.68 94.5748 13.112C95.3748 13.544 95.9988 14.16 96.4468 14.96C96.9108 14.224 97.5428 13.624 98.3428 13.16C99.1428 12.696 100.015 12.464 100.959 12.464ZM111.341 11.216C110.621 11.216 110.029 11.008 109.565 10.592C109.117 10.16 108.893 9.632 108.893 9.008C108.893 8.368 109.117 7.84 109.565 7.424C110.029 6.992 110.621 6.776 111.341 6.776C112.045 6.776 112.621 6.992 113.069 7.424C113.533 7.84 113.765 8.368 113.765 9.008C113.765 9.632 113.533 10.16 113.069 10.592C112.621 11.008 112.045 11.216 111.341 11.216ZM113.381 12.608V26H109.277V12.608H113.381ZM123.075 16.016H120.867V26H116.763V16.016H115.275V12.608H116.763V12.224C116.763 10.576 117.235 9.328 118.179 8.48C119.123 7.616 120.507 7.184 122.331 7.184C122.635 7.184 122.859 7.192 123.003 7.208V10.688C122.219 10.64 121.667 10.752 121.347 11.024C121.027 11.296 120.867 11.784 120.867 12.488V12.608H123.075V16.016ZM138.684 12.608L130.284 32.36H125.868L128.94 25.544L123.492 12.608H128.076L131.172 20.984L134.244 12.608H138.684Z" fill="white"/>
</svg>
